<svg width="38" height="38" viewBox="0 0 38 38" fill="none" xmlns="http://www.w3.org/2000/svg">
<g clip-path="url(#clip0_1820_40340)">
<path fill-rule="evenodd" clip-rule="evenodd" d="M18.6623 35.0814C29.5148 35.0814 37.3332 28.0135 37.3332 26.2269V21.8575C37.1713 20.4019 35.7779 17.8697 33.6202 16.9707C33.5896 16.807 33.5631 16.6378 33.5355 16.4615C33.4688 16.035 33.3955 15.5665 33.2403 15.0325C33.7097 13.8473 33.8333 12.5054 33.8333 11.1707C33.8333 9.139 33.5359 7.0423 32.2168 5.37274C30.8659 3.66282 28.7304 2.75033 25.8598 2.43138C23.0463 2.11876 20.5826 2.51132 18.9914 4.2162C18.8759 4.33992 18.7592 4.46872 18.658 4.60031C18.5569 4.46872 18.4487 4.33992 18.3332 4.2162C16.742 2.51132 14.2783 2.11876 11.4648 2.43138C8.59425 2.75033 6.45874 3.66282 5.10781 5.37274C3.78877 7.0423 3.49138 9.139 3.49138 11.1707C3.49138 12.5054 3.61493 13.8473 4.08437 15.0325C3.92917 15.5665 3.85589 16.0349 3.78916 16.4614C3.76156 16.6378 3.73508 16.807 3.7044 16.9707C1.54678 17.8697 0.153316 20.4019 -0.00854492 21.8575V26.2269C-0.00854492 28.0135 7.80987 35.0814 18.6623 35.0814ZM25.4734 5.90997C23.0369 5.63926 22.0006 6.1217 21.5502 6.60432C21.0745 7.11393 20.7136 8.18719 20.9865 10.3703C21.1982 12.0638 21.6918 13.2406 22.4277 13.9918C23.1256 14.7043 24.2581 15.254 26.25 15.254C28.4021 15.254 29.2356 14.7902 29.6142 14.3683C30.0322 13.9025 30.3333 13.0194 30.3333 11.1707C30.3333 9.38417 30.0474 8.27254 29.4706 7.54248C28.9257 6.85277 27.8529 6.17436 25.4734 5.90997ZM15.7776 6.60432C15.3272 6.1217 14.2909 5.63926 11.8544 5.90997C9.47493 6.17436 8.40211 6.85277 7.85721 7.54248C7.28041 8.27254 6.99447 9.38417 6.99447 11.1707C6.99447 13.0194 7.29558 13.9025 7.71361 14.3683C8.0922 14.7902 8.92571 15.254 11.0778 15.254C13.0697 15.254 14.2022 14.7043 14.9001 13.9918C15.6359 13.2406 16.1296 12.0638 16.3413 10.3703C16.6142 8.18719 16.2533 7.11393 15.7776 6.60432ZM18.6624 31.6173C23.9821 31.6173 29.3574 29.0273 30.3333 28.2732V18.344L30.2794 18.0744C29.1357 18.5636 27.7719 18.754 26.25 18.754C23.5752 18.754 21.4445 17.9898 19.9274 16.441C19.4164 15.9193 19.0015 15.3353 18.6667 14.7079C18.3318 15.3353 17.9084 15.9193 17.3973 16.441C15.8802 17.9898 13.7496 18.754 11.0748 18.754C9.55289 18.754 8.18904 18.5636 7.04536 18.0744L6.99146 18.344V28.2732C7.96738 29.0273 13.3427 31.6173 18.6624 31.6173Z" fill="#A371F7"/>
<path d="M14.5833 21.0873C15.5498 21.0873 16.3333 21.8708 16.3333 22.8373V26.3373C16.3333 27.3038 15.5498 28.0873 14.5833 28.0873C13.6168 28.0873 12.8333 27.3038 12.8333 26.3373V22.8373C12.8333 21.8708 13.6168 21.0873 14.5833 21.0873Z" fill="#A371F7"/>
<path d="M24.5 22.8373C24.5 21.8708 23.7165 21.0873 22.75 21.0873C21.7835 21.0873 21 21.8708 21 22.8373V26.3373C21 27.3038 21.7835 28.0873 22.75 28.0873C23.7165 28.0873 24.5 27.3038 24.5 26.3373V22.8373Z" fill="#A371F7"/>
</g>
<defs>
<clipPath id="clip0_1820_40340">
<rect width="37.3333" height="37.3333" fill="white"/>
</clipPath>
</defs>
</svg>
